<svg xmlns="http://www.w3.org/2000/svg" xmlns:xlink="http://www.w3.org/1999/xlink" width="24px" height="22px" viewBox="0 0 24 22" preserveAspectRatio="xMaxYMin">
	<path fill-rule="evenodd" fill="rgb(31, 31, 31)" d="M23.284,13.472 L23.284,21.887 L18.320,21.887 L18.320,14.035 C18.320,12.063 17.602,10.718 15.805,10.718 C14.434,10.718 13.617,11.624 13.258,12.502 C13.127,12.816 13.093,13.252 13.093,13.692 L13.093,21.887 L8.128,21.887 C8.128,21.887 8.194,8.590 8.128,7.212 L13.093,7.212 L13.093,9.292 C13.083,9.307 13.070,9.324 13.060,9.339 L13.093,9.339 L13.093,9.292 C13.752,8.294 14.931,6.867 17.568,6.867 C20.835,6.867 23.284,8.964 23.284,13.472 ZM2.932,0.137 C1.235,0.137 0.123,1.232 0.123,2.673 C0.123,4.081 1.202,5.209 2.868,5.209 L2.900,5.209 C4.632,5.209 5.710,4.081 5.710,2.673 C5.676,1.232 4.632,0.137 2.932,0.137 ZM0.418,21.887 L5.382,21.887 L5.382,7.212 L0.418,7.212 L0.418,21.887 Z"></path>
</svg>