<svg xmlns="http://www.w3.org/2000/svg" xmlns:xlink="http://www.w3.org/1999/xlink" width="26px" height="21px" viewBox="0 0 26 21" preserveAspectRatio="xMaxYMin">
	<path fill-rule="evenodd" fill="rgb(38, 38, 38)" d="M25.982,2.455 C25.028,2.870 24.002,3.152 22.925,3.278 C24.024,2.631 24.868,1.606 25.266,0.384 C24.237,0.984 23.099,1.419 21.886,1.653 C20.914,0.637 19.531,0.002 18.000,0.002 C15.061,0.002 12.677,2.344 12.677,5.232 C12.677,5.642 12.724,6.042 12.816,6.425 C8.392,6.207 4.470,4.123 1.844,0.959 C1.386,1.731 1.124,2.630 1.124,3.589 C1.124,5.404 2.063,7.005 3.492,7.942 C2.619,7.916 1.798,7.681 1.081,7.288 C1.081,7.311 1.081,7.332 1.081,7.355 C1.081,9.889 2.915,12.003 5.350,12.484 C4.903,12.603 4.433,12.667 3.947,12.667 C3.604,12.667 3.271,12.634 2.946,12.574 C3.624,14.651 5.589,16.163 7.919,16.206 C6.097,17.609 3.802,18.445 1.308,18.445 C0.878,18.445 0.454,18.420 0.038,18.371 C2.394,19.856 5.192,20.722 8.197,20.722 C17.987,20.722 23.341,12.752 23.341,5.839 C23.341,5.612 23.336,5.387 23.327,5.163 C24.367,4.425 25.268,3.504 25.982,2.455 Z"></path>
</svg>