<svg class="layout__col-right-whatsapp-link-image" xmlns="http://www.w3.org/2000/svg" xmlns:xlink="http://www.w3.org/1999/xlink" width="27px" height="27px" viewBox="0 0 27 27" preserveAspectRatio="xMaxYMin">
	<path fill-rule="evenodd" fill="1f1f1f" d="M13.655,0.304 L13.648,0.304 C6.289,0.304 0.304,6.290 0.304,13.652 C0.304,16.572 1.245,19.278 2.845,21.476 L1.181,26.434 L6.312,24.794 C8.423,26.192 10.940,27.000 13.655,27.000 C21.015,27.000 27.000,21.012 27.000,13.652 C27.000,6.292 21.015,0.304 13.655,0.304 ZM21.422,19.153 C21.100,20.062 19.822,20.816 18.803,21.037 C18.105,21.185 17.194,21.304 14.127,20.032 C10.205,18.407 7.679,14.421 7.482,14.162 C7.293,13.904 5.897,12.052 5.897,10.136 C5.897,8.221 6.869,7.288 7.261,6.888 C7.583,6.559 8.116,6.409 8.626,6.409 C8.791,6.409 8.940,6.417 9.073,6.424 C9.465,6.440 9.662,6.464 9.921,7.083 C10.243,7.859 11.027,9.774 11.121,9.971 C11.216,10.168 11.311,10.435 11.177,10.694 C11.052,10.961 10.942,11.079 10.745,11.306 C10.548,11.533 10.362,11.706 10.165,11.950 C9.984,12.162 9.781,12.389 10.008,12.781 C10.235,13.165 11.019,14.444 12.174,15.472 C13.664,16.799 14.872,17.222 15.304,17.403 C15.626,17.536 16.009,17.504 16.245,17.254 C16.543,16.932 16.912,16.398 17.288,15.873 C17.555,15.496 17.892,15.449 18.245,15.582 C18.606,15.707 20.513,16.650 20.905,16.845 C21.297,17.042 21.556,17.136 21.651,17.301 C21.744,17.466 21.744,18.242 21.422,19.153 Z"></path>
</svg>