<svg xmlns="http://www.w3.org/2000/svg" xmlns:xlink="http://www.w3.org/1999/xlink" width="14px" height="26px" viewBox="0 0 14 26" preserveAspectRatio="xMaxYMin">
	<path fill-rule="evenodd" fill="rgb(32, 32, 32)" d="M13.329,0.506 L10.006,0.501 C6.274,0.501 3.861,2.929 3.861,6.687 L3.861,9.538 L0.520,9.538 C0.232,9.538 -0.003,9.768 -0.003,10.051 L-0.003,14.183 C-0.003,14.466 0.232,14.695 0.520,14.695 L3.861,14.695 L3.861,25.122 C3.861,25.405 4.095,25.634 4.383,25.634 L8.742,25.634 C9.031,25.634 9.265,25.405 9.265,25.122 L9.265,14.695 L13.172,14.695 C13.459,14.695 13.694,14.466 13.694,14.183 L13.695,10.051 C13.695,9.915 13.639,9.785 13.542,9.689 C13.444,9.592 13.311,9.538 13.172,9.538 L9.265,9.538 L9.265,7.121 C9.265,5.959 9.547,5.368 11.090,5.368 L13.328,5.368 C13.617,5.368 13.851,5.138 13.851,4.856 L13.851,1.019 C13.851,0.736 13.618,0.507 13.329,0.506 Z"></path>
</svg>